<?xml version="1.0" standalone="no"?>
<!DOCTYPE svg PUBLIC "-//W3C//DTD SVG 20010904//EN"
 "http://www.w3.org/TR/2001/REC-SVG-20010904/DTD/svg10.dtd">
<svg version="1.0" xmlns="http://www.w3.org/2000/svg"
 width="720.000000pt" height="720.000000pt" viewBox="0 0 720.000000 720.000000"
 preserveAspectRatio="xMidYMid meet">
<metadata>
Created by potrace 1.14, written by Peter Selinger 2001-2017
</metadata>
<g transform="translate(0.000000,720.000000) scale(0.100000,-0.100000)"
fill="#000000" stroke="none">
<path d="M256 7192 c-6 -10 -3 -51 25 -287 34 -296 38 -333 53 -505 9 -91 22
-221 30 -290 30 -244 55 -466 62 -537 7 -81 14 -86 76 -59 42 18 194 66 209
66 7 0 30 9 53 19 23 11 75 30 116 42 41 12 101 30 132 40 31 11 79 18 105 17
90 -3 309 37 317 58 5 14 -37 14 -473 -6 -221 -10 -231 -8 -231 39 0 15 -4 31
-9 36 -12 14 -29 137 -55 400 -3 28 -12 104 -21 170 -9 66 -20 174 -25 240 -5
66 -22 220 -37 343 l-27 222 -147 0 c-81 0 -150 -4 -153 -8z"/>
<path d="M964 7168 c3 -18 10 -89 16 -158 12 -142 17 -188 30 -280 5 -36 12
-115 14 -175 7 -150 17 -258 24 -270 6 -8 10 -52 13 -125 1 -18 40 -22 51 -6
5 7 8 4 8 -7 0 -15 6 -17 38 -11 20 4 40 11 43 16 3 4 28 9 55 10 27 1 61 7
76 15 15 7 36 13 48 13 13 0 20 7 20 20 0 23 28 39 39 22 3 -6 24 -12 46 -15
l40 -4 -42 -1 c-63 -3 -52 -22 12 -22 41 0 53 3 49 13 -3 9 7 18 28 24 32 11
32 11 6 12 -15 1 -29 5 -33 11 -3 5 -32 12 -65 16 -33 4 -60 10 -60 14 0 4 35
9 78 12 42 2 87 11 99 19 18 11 29 11 54 2 27 -11 30 -10 24 5 -4 11 -3 14 4
7 16 -17 1 -64 -22 -67 -11 -2 -22 -9 -25 -15 -3 -9 11 -13 50 -13 66 0 88 12
70 37 -7 10 -15 26 -18 36 -4 9 -14 17 -23 18 -9 1 -1 6 17 11 34 11 44 38 15
38 -10 1 -36 7 -58 15 -25 10 -99 17 -200 21 -155 6 -206 16 -151 30 14 3 26
10 26 14 0 9 190 21 343 22 85 0 107 3 107 15 0 7 7 16 15 19 20 8 19 30 -1
38 -9 3 -125 6 -260 6 l-244 0 -4 23 c-3 12 -7 49 -10 82 -3 33 -12 96 -20
140 -8 44 -20 153 -27 243 l-12 162 -144 0 -144 0 5 -32z"/>
<path d="M5336 7178 c4 -13 17 -46 30 -75 34 -75 32 -107 -13 -158 -42 -47
-67 -79 -114 -145 -18 -25 -35 -47 -38 -50 -13 -10 -81 -108 -81 -116 0 -5
-17 -20 -38 -33 -22 -13 -44 -32 -51 -43 -32 -51 -71 -130 -71 -143 0 -8 -4
-15 -9 -15 -11 0 -41 -62 -41 -83 0 -9 9 -19 20 -22 15 -5 20 -15 20 -42 0
-30 8 -44 48 -82 50 -48 67 -53 124 -37 20 6 40 2 71 -13 24 -12 50 -21 58
-21 48 0 52 -104 8 -192 -10 -21 24 -58 53 -58 10 0 18 -5 18 -11 0 -6 7 -9
14 -6 10 4 13 1 9 -9 -3 -7 -11 -14 -19 -14 -8 0 -14 -7 -14 -16 0 -8 -4 -13
-9 -10 -5 3 -14 -1 -20 -8 -14 -17 -8 -21 44 -30 69 -12 76 -16 70 -37 -4 -11
-2 -19 5 -19 8 0 8 -6 0 -20 -9 -16 -7 -22 7 -27 10 -4 23 -14 30 -23 7 -10
39 -25 71 -34 33 -9 67 -25 77 -35 9 -11 39 -28 66 -37 27 -10 57 -26 66 -36
15 -17 15 -21 -2 -57 -13 -30 -25 -42 -49 -47 -39 -8 -59 -33 -43 -53 9 -10 6
-17 -11 -31 -13 -11 -22 -29 -22 -45 0 -44 -40 -125 -61 -125 -17 0 -19 -9
-19 -84 0 -46 -4 -86 -9 -88 -5 -1 -12 -17 -15 -34 -6 -27 -2 -38 25 -68 17
-20 29 -40 25 -44 -4 -3 -10 -1 -15 6 -5 8 -20 9 -51 4 -37 -7 -41 -10 -23
-16 11 -3 24 -18 27 -31 7 -28 42 -41 81 -31 18 5 23 3 19 -8 -3 -8 -35 -18
-80 -25 -66 -11 -77 -16 -102 -47 -15 -19 -32 -34 -38 -34 -15 0 -54 -56 -54
-78 0 -11 11 -40 25 -65 39 -69 29 -79 -71 -75 -45 1 -86 -1 -90 -5 -11 -11
-13 -220 -3 -233 10 -12 6 -90 -5 -101 -3 -3 -29 8 -57 25 -90 57 -96 31 -6
-33 61 -44 142 -138 170 -198 9 -21 17 -40 17 -43 0 -14 -60 13 -93 42 -20 19
-46 34 -57 34 -13 0 -18 5 -13 16 4 12 0 14 -22 8 -20 -5 -26 -4 -21 5 4 6 13
11 21 11 10 0 7 8 -9 25 -13 14 -30 25 -37 25 -10 -1 -9 -4 4 -14 23 -18 22
-30 -3 -23 -27 7 -28 -29 -1 -38 13 -4 17 -12 14 -25 -5 -19 30 -121 50 -147
5 -7 6 -27 3 -45 -15 -72 -17 -117 -6 -137 7 -14 8 -27 2 -38 -8 -14 -16 -10
-50 28 -23 24 -44 40 -49 35 -4 -4 -7 -33 -5 -64 2 -53 0 -59 -27 -80 -30 -23
-30 -23 -41 -2 -14 26 -42 26 -66 -1 -13 -14 -25 -18 -42 -14 -13 3 -31 0 -39
-7 -14 -11 -15 -10 -9 10 6 19 4 22 -18 22 -14 0 -28 -5 -31 -10 -3 -6 -24
-10 -46 -10 -54 0 -67 -31 -43 -104 10 -28 18 -74 19 -103 l2 -52 162 -157
c170 -166 185 -189 143 -227 -31 -28 -50 -20 -120 51 -37 37 -76 74 -87 84
-11 9 -31 28 -45 43 -30 34 -69 60 -76 52 -4 -3 -1 -20 5 -38 6 -18 11 -51 11
-75 0 -23 5 -55 11 -71 6 -15 12 -37 13 -48 2 -11 6 -35 11 -54 5 -23 4 -31
-4 -27 -12 8 -15 -64 -5 -126 8 -48 20 -48 29 0 10 56 31 82 65 82 50 0 57
-31 35 -150 -21 -112 -19 -117 46 -151 34 -17 60 -19 223 -19 l185 0 34 42
c51 63 67 129 67 276 l0 125 -35 38 c-41 46 -44 73 -10 95 21 14 30 14 54 4
30 -12 71 -52 90 -88 17 -33 14 -296 -5 -362 -9 -30 -18 -66 -21 -80 -7 -32
-74 -102 -134 -141 -45 -28 -49 -29 -177 -29 -217 0 -343 26 -388 81 -11 13
-30 33 -42 43 -20 18 -22 18 -16 2 4 -11 -1 -28 -15 -46 -24 -33 -21 -49 23
-102 31 -37 59 -48 71 -27 4 6 13 8 20 5 7 -2 17 0 23 6 8 8 18 6 36 -6 26
-17 31 -37 27 -102 l-2 -32 95 -4 c56 -2 101 -9 108 -16 17 -17 79 -15 102 3
28 21 57 19 63 -5 3 -11 13 -20 23 -20 9 0 25 -8 34 -19 14 -15 23 -17 54 -10
56 13 67 11 94 -14 l25 -23 -19 -38 c-13 -25 -16 -42 -10 -48 5 -5 39 -11 74
-11 36 -1 71 -7 79 -14 8 -7 25 -10 37 -6 21 5 21 4 11 -28 -7 -19 -16 -38
-20 -44 -5 -5 -9 -17 -9 -26 0 -10 -8 -31 -17 -48 -18 -30 -18 -31 5 -46 27
-20 29 -56 2 -80 -11 -10 -20 -24 -20 -31 0 -23 -23 -64 -32 -58 -5 3 -8 2 -7
-3 4 -14 -20 -63 -30 -63 -12 0 -81 -69 -81 -81 0 -10 -54 -26 -115 -35 -64
-9 -125 -33 -125 -49 0 -17 -134 -65 -182 -65 -14 0 -31 -7 -38 -16 -17 -19
-70 -12 -158 22 -61 24 -82 25 -82 1 0 -15 51 -67 66 -67 7 0 14 -5 16 -12 4
-12 109 -17 463 -20 168 -2 231 1 268 12 26 8 47 18 47 22 0 4 7 8 16 8 18 0
44 23 44 39 0 6 5 11 10 11 6 0 10 9 10 20 0 12 15 28 40 42 44 25 48 47 12
63 -27 12 -30 45 -4 45 11 0 27 9 37 20 10 11 24 20 30 20 7 0 16 7 19 16 4
10 12 14 22 10 8 -3 29 1 46 10 25 13 32 14 40 2 6 -10 14 -7 32 14 28 31 100
46 224 47 39 0 77 3 83 7 6 3 39 6 74 5 54 -1 63 2 68 18 5 20 37 28 142 35
56 4 154 15 203 22 19 3 32 11 32 19 0 8 5 15 10 15 6 0 10 -7 10 -15 0 -8 7
-15 15 -15 8 0 15 6 15 14 0 19 40 32 50 16 4 -7 13 -9 19 -6 6 4 9 11 6 15
-2 5 14 11 37 14 22 3 44 10 47 16 11 17 111 32 164 25 l47 -6 0 2225 0 2225
-37 42 c-21 23 -50 55 -65 71 -14 16 -48 55 -74 86 -27 32 -75 88 -109 124
-33 36 -82 101 -110 145 -27 43 -79 117 -115 164 -35 47 -86 121 -112 165 -27
43 -61 93 -76 110 -15 16 -43 54 -61 83 -19 30 -44 60 -57 69 -13 8 -26 23
-29 34 -6 18 -23 19 -516 19 l-510 0 7 -22z"/>
<path d="M4417 6666 c-32 -31 -33 -35 -15 -40 23 -6 54 11 62 34 3 8 9 21 12
28 12 25 -26 11 -59 -22z"/>
<path d="M3580 6606 c-6 -9 -10 -21 -8 -28 3 -8 9 -4 17 10 15 28 9 39 -9 18z"/>
<path d="M1940 6560 c-32 -4 -46 -10 -48 -23 -2 -9 2 -19 10 -21 74 -21 97
-30 89 -35 -5 -3 43 -4 107 -3 65 2 119 8 120 13 6 15 39 10 46 -6 4 -11 23
-15 77 -15 61 0 70 2 65 16 -3 9 -6 18 -6 20 0 2 -11 4 -25 4 -25 0 -37 20
-12 20 6 1 -1 8 -18 17 -24 14 -61 17 -195 17 -91 1 -185 -1 -210 -4z m165
-60 c-3 -5 -10 -10 -16 -10 -5 0 -9 5 -9 10 0 6 7 10 16 10 8 0 12 -4 9 -10z"/>
<path d="M1992 6375 c6 -14 22 -26 37 -28 50 -9 131 -7 131 3 0 5 -6 10 -14
10 -7 0 -25 9 -39 20 -32 25 -33 25 -41 -2 -4 -18 -8 -20 -18 -10 -6 6 -20 12
-30 12 -10 0 -18 5 -18 10 0 6 -4 10 -10 10 -6 0 -5 -9 2 -25z"/>
<path d="M2293 6319 c-3 -11 -11 -18 -19 -15 -7 3 -16 1 -19 -4 -3 -5 4 -12
16 -15 14 -5 25 -1 33 11 9 12 15 14 20 6 9 -15 36 -16 36 -1 0 6 -9 13 -20
16 -11 3 -20 9 -20 14 0 18 -22 8 -27 -12z"/>
<path d="M1685 6200 c3 -5 15 -10 26 -10 10 0 19 5 19 10 0 6 -12 10 -26 10
-14 0 -23 -4 -19 -10z"/>
<path d="M1168 6054 c-8 -17 -18 -24 -30 -21 -13 4 -18 -1 -19 -16 -1 -20 -2
-20 -8 3 -7 25 -7 25 -13 3 -3 -13 0 -27 6 -33 14 -10 84 -13 151 -6 22 3 73
8 113 12 80 7 100 29 35 39 -21 3 -56 9 -78 14 -22 5 -52 7 -66 4 -16 -3 -30
1 -38 11 -20 23 -40 20 -53 -10z"/>
<path d="M1715 6040 c-3 -5 1 -10 10 -10 9 0 13 5 10 10 -3 6 -8 10 -10 10 -2
0 -7 -4 -10 -10z"/>
<path d="M5255 6020 c-10 -11 -14 -20 -9 -20 5 0 15 9 22 20 7 11 11 20 9 20
-2 0 -12 -9 -22 -20z"/>
<path d="M1600 6015 c0 -8 4 -15 10 -15 5 0 7 7 4 15 -4 8 -8 15 -10 15 -2 0
-4 -7 -4 -15z"/>
<path d="M1660 6010 c0 -5 7 -10 16 -10 8 0 12 5 9 10 -3 6 -10 10 -16 10 -5
0 -9 -4 -9 -10z"/>
<path d="M5695 5450 c3 -5 11 -10 16 -10 6 0 7 5 4 10 -3 6 -11 10 -16 10 -6
0 -7 -4 -4 -10z"/>
<path d="M4590 4613 c-44 -8 -70 -43 -31 -43 10 0 24 -7 31 -15 14 -16 9 -20
-45 -28 -16 -3 -48 -8 -70 -12 -22 -3 -55 -8 -72 -11 -39 -6 -42 -15 -10 -29
15 -7 21 -17 19 -31 -2 -16 7 -27 33 -43 40 -23 49 -26 40 -11 -6 10 7 14 32
11 21 -3 74 42 87 74 11 25 27 103 27 132 1 10 -10 11 -41 6z"/>
<path d="M3657 4529 c-40 -33 -55 -33 -112 1 -36 21 -78 13 -83 -15 -7 -44
-25 -74 -51 -84 -21 -9 -30 -24 -45 -75 -9 -35 -16 -76 -14 -92 3 -27 6 -29
51 -32 36 -2 54 2 74 18 20 16 38 20 68 18 32 -2 39 0 37 13 -1 9 4 22 13 29
12 10 16 9 21 -4 3 -9 10 -16 16 -16 18 0 79 75 74 93 -3 12 2 17 16 17 15 0
18 3 10 13 -10 12 -14 66 -5 80 3 4 11 3 19 -4 17 -14 19 2 2 19 -8 8 -8 15 1
25 9 12 7 16 -11 21 -36 9 -41 8 -81 -25z"/>
<path d="M4251 3886 c-36 -37 -67 -45 -100 -25 -23 15 -64 5 -95 -24 -38 -35
-46 -65 -29 -112 8 -22 18 -60 24 -85 6 -24 19 -53 30 -63 10 -10 19 -22 19
-27 0 -6 8 -10 19 -10 10 0 24 -7 31 -15 9 -10 9 -15 1 -15 -6 0 -11 -5 -11
-11 0 -6 7 -9 15 -5 8 3 15 1 15 -3 0 -5 -7 -11 -15 -15 -8 -3 -15 -12 -15
-20 0 -15 -59 -46 -112 -59 -36 -9 -36 -23 -1 -30 44 -8 198 43 241 80 15 13
32 27 37 32 15 13 45 51 45 57 0 3 15 23 33 45 54 63 72 155 48 245 -15 54
-50 85 -103 91 -39 4 -46 1 -77 -31z"/>
<path d="M0 1998 c0 -34 6 -58 17 -70 16 -18 16 -18 0 -12 -15 5 -17 -2 -17
-65 0 -68 1 -72 26 -81 14 -6 41 -10 60 -10 44 0 37 15 -18 40 -35 16 -37 18
-17 23 18 5 20 9 10 21 -7 8 -14 53 -17 101 -4 93 -7 105 -30 105 -10 0 -14
-13 -14 -52z"/>
<path d="M0 1605 c0 -8 9 -15 20 -15 11 0 20 -4 20 -10 0 -5 -9 -10 -20 -10
-15 0 -20 -7 -20 -27 1 -24 2 -26 13 -12 7 9 22 19 35 23 22 7 31 26 11 26 -5
0 -8 4 -4 9 6 10 -25 31 -44 31 -6 0 -11 -7 -11 -15z"/>
<path d="M13 1484 c-9 -4 -13 -31 -13 -85 0 -77 1 -79 25 -79 14 0 29 8 35 20
7 14 7 20 0 20 -5 0 -10 9 -10 20 0 11 7 20 15 20 8 0 15 -9 15 -20 0 -11 6
-20 14 -20 8 0 16 -6 19 -12 4 -10 7 -10 18 0 10 9 10 12 1 12 -10 0 -10 5 -2
21 6 11 17 18 23 16 7 -2 18 9 24 26 7 16 22 31 33 34 36 10 10 23 -43 23 -29
-1 -72 1 -97 4 -25 3 -51 3 -57 0z"/>
<path d="M3023 1308 c-11 -69 -7 -82 33 -92 34 -9 28 -40 -9 -44 l-27 -3 0
-91 c0 -71 4 -96 16 -110 14 -14 14 -20 4 -33 -18 -21 -6 -42 29 -50 25 -5 29
-10 27 -33 -2 -16 -10 -28 -20 -30 -12 -3 -15 -9 -10 -20 3 -10 9 -27 11 -39
3 -12 14 -25 24 -28 10 -4 19 -13 19 -21 0 -12 -23 -18 -67 -17 -8 0 -11 -14
-11 -41 3 -74 -5 -146 -16 -155 -17 -13 -68 -24 -98 -22 -26 2 -27 1 -17 -28
6 -17 15 -28 21 -25 6 4 8 -1 6 -11 -1 -10 -9 -20 -17 -23 -9 -3 -11 0 -6 8 6
9 3 9 -14 1 -11 -7 -21 -20 -21 -31 0 -10 -5 -22 -11 -25 -5 -4 -14 -18 -19
-31 -12 -31 -27 -31 -42 0 -10 24 -11 24 -89 -52 -44 -42 -79 -82 -79 -89 0
-18 -18 -16 -37 2 -8 9 -23 13 -33 10 -10 -3 -29 0 -43 6 -20 9 -33 9 -56 -1
-23 -9 -38 -9 -65 0 -29 9 -40 8 -72 -10 -22 -11 -50 -20 -63 -20 -30 0 -101
47 -101 66 0 8 -4 14 -10 14 -5 0 -10 -8 -10 -18 0 -9 -9 -23 -20 -30 -16 -10
-20 -10 -20 1 0 20 -30 77 -40 77 -5 0 -13 -7 -18 -16 -8 -14 -12 -14 -30 -3
-12 8 -22 19 -22 25 0 6 -16 29 -36 52 -19 23 -34 47 -33 54 3 25 -1 51 -7 45
-11 -11 -119 53 -127 75 -9 25 -25 14 -30 -22 -3 -21 -10 -25 -45 -28 -37 -3
-42 -1 -42 18 0 12 -6 28 -14 36 -13 12 -15 11 -21 -6 -12 -39 -22 -19 -22 42
0 52 -3 64 -21 76 -20 13 -22 23 -22 98 0 52 -4 84 -10 84 -18 0 -70 -30 -70
-40 0 -6 -16 -10 -35 -10 -22 0 -38 -6 -41 -15 -8 -21 -18 -19 -65 10 -45 29
-55 27 -64 -14 -4 -21 -13 -30 -33 -34 -81 -17 -130 -33 -157 -52 -44 -32 -60
-35 -90 -19 -15 8 -53 14 -85 14 -47 0 -62 4 -84 25 -14 13 -26 31 -26 39 0
16 -49 36 -90 36 -39 0 -63 22 -74 71 -10 39 -15 44 -41 47 -43 4 -75 22 -75
43 0 46 -34 26 -36 -21 0 -14 -4 -33 -9 -43 -6 -15 -3 -18 21 -15 26 3 30 -1
42 -42 7 -25 25 -76 40 -115 14 -38 27 -82 27 -96 0 -16 10 -36 25 -48 32 -27
84 -56 76 -42 -10 15 4 13 34 -4 14 -8 36 -14 50 -15 14 0 34 -10 45 -22 12
-15 20 -18 23 -10 2 7 17 12 33 12 22 0 29 -5 29 -19 0 -16 6 -17 53 -13 54 5
77 16 77 37 0 7 15 16 33 19 45 8 97 -3 97 -21 0 -11 5 -13 18 -8 9 4 33 14
52 21 19 7 29 13 23 14 -28 1 -11 20 25 27 43 8 58 7 89 -9 13 -6 26 -8 30 -3
5 4 2 10 -4 12 -18 6 -16 20 3 27 14 5 16 1 10 -32 -6 -38 -5 -40 34 -57 22
-10 40 -22 40 -27 0 -14 43 -9 62 9 11 10 18 12 18 4 0 -12 68 -76 81 -76 4 0
14 -6 21 -13 6 -6 18 -12 25 -12 7 0 13 -4 13 -10 0 -5 5 -10 11 -10 5 0 7 6
3 12 -5 7 8 -1 27 -17 19 -17 49 -37 66 -44 42 -17 53 -52 53 -163 l0 -88
1315 0 1315 0 0 80 c0 69 2 80 18 80 16 1 16 1 0 14 -16 12 -15 14 11 33 29
22 36 49 17 72 -9 12 -5 13 27 7 21 -4 37 -3 37 2 0 5 -14 12 -30 15 -39 8
-39 26 0 33 17 4 30 10 30 15 0 5 23 18 50 30 65 28 65 52 -1 59 -54 6 -74 -8
-65 -46 5 -17 2 -24 -8 -24 -8 0 -18 5 -21 10 -10 17 -26 0 -20 -21 5 -14 2
-19 -11 -19 -33 0 -119 -49 -149 -85 -42 -51 -103 -78 -173 -76 -100 2 -126 1
-182 -6 -30 -4 -91 -6 -135 -6 -76 0 -82 2 -115 33 -28 26 -40 31 -65 27 -19
-3 -48 2 -72 13 -22 10 -60 21 -84 25 -78 12 -121 41 -149 98 -20 41 -32 54
-59 63 -42 14 -65 42 -50 61 8 9 8 17 0 27 -9 11 -7 15 8 19 30 8 35 58 12
129 -11 35 -22 75 -26 91 -3 15 -11 27 -17 27 -7 0 -28 17 -46 38 -32 35 -33
40 -27 92 3 30 17 78 29 105 33 71 98 281 94 302 -4 23 -63 30 -86 10 -10 -8
-25 -17 -34 -20 -10 -4 -18 -16 -18 -27 0 -27 -10 -25 -50 10 -18 17 -39 30
-46 30 -7 0 -16 9 -19 20 -7 22 -20 26 -30 10 -9 -15 -25 -12 -25 5 0 8 -4 15
-8 15 -5 0 -13 -28 -19 -62z m-1183 -878 c0 -5 -7 -10 -15 -10 -8 0 -15 5 -15
10 0 6 7 10 15 10 8 0 15 -4 15 -10z m40 -40 c0 -5 -15 -10 -32 -10 -25 0 -29
3 -18 10 20 13 50 13 50 0z m75 -186 c4 -26 2 -39 -7 -45 -28 -18 -36 -10 -27
29 5 20 9 40 9 45 0 4 4 7 9 7 5 0 12 -16 16 -36z m85 -34 c0 -5 -4 -10 -10
-10 -5 0 -10 5 -10 10 0 6 5 10 10 10 6 0 10 -4 10 -10z m47 -12 c-3 -8 -6 -5
-6 6 -1 11 2 17 5 13 3 -3 4 -12 1 -19z m2393 -108 c0 -5 -5 -10 -11 -10 -5 0
-7 5 -4 10 3 6 8 10 11 10 2 0 4 -4 4 -10z"/>
<path d="M3393 723 c-15 -5 -18 -53 -3 -53 9 0 26 48 19 54 -2 2 -10 1 -16 -1z"/>
<path d="M1700 490 c0 -5 9 -10 21 -10 11 0 17 5 14 10 -3 6 -13 10 -21 10 -8
0 -14 -4 -14 -10z"/>
<path d="M4577 425 c-7 -16 8 -29 23 -20 15 9 12 35 -4 35 -8 0 -16 -7 -19
-15z"/>
<path d="M1425 390 c3 -5 8 -10 11 -10 2 0 4 5 4 10 0 6 -5 10 -11 10 -5 0 -7
-4 -4 -10z"/>
</g>
</svg>
